<?xml version="1.0" encoding="UTF-8"?>
<svg version="1.1" xmlns="http://www.w3.org/2000/svg" width="500" height="500">
<path d="M0 0 C165 0 330 0 500 0 C500 165 500 330 500 500 C335 500 170 500 0 500 C0 335 0 170 0 0 Z " fill="#FEFEFE" transform="translate(0,0)"/>
<path d="M0 0 C3.5320826 3.47501125 6.88037094 7.0569578 10.1875 10.75 C24.30668505 26.22223405 40.97606053 36.20322265 59.10107422 46.29125977 C80.51012432 58.26132725 80.51012432 58.26132725 84 70 C84 71.32 84 72.64 84 74 C88.5485649 72.07949482 91.09758344 70.65035158 93 66 C93.41725678 62.37400578 93.41725678 62.37400578 93 59 C90.4345406 56.4345406 88.52313332 56.45953913 85 56 C85.0625 54.1875 85.0625 54.1875 86 52 C89.5 50.3125 89.5 50.3125 93 49 C93.33 48.67 93.66 48.34 94 48 C99.02784731 47.86743905 103.58763474 48.15096507 107.5625 51.4375 C111.48453384 55.56066378 111.26827604 58.67332636 111.62109375 64.17578125 C112.00906719 67.06758326 112.80721714 69.34883485 114 72 C115.93959767 69.22497446 115.93959767 69.22497446 117.0078125 66.984375 C117.37648438 66.24703125 117.74515625 65.5096875 118.125 64.75 C118.47820312 64.02296875 118.83140625 63.2959375 119.1953125 62.546875 C124.14607974 55.56007795 131.29788051 51.39059672 138.6875 47.375 C140.54840678 46.33346128 142.40773697 45.28910156 144.265625 44.2421875 C145.21244141 43.70948242 146.15925781 43.17677734 147.13476562 42.62792969 C164.9960676 32.47973937 185.92204495 20.54680663 196.64453125 2.18359375 C197.09183594 1.46300781 197.53914062 0.74242187 198 0 C198.66 0 199.32 0 200 0 C198.43524508 6.47863442 196.50600921 12.83406905 194.3125 19.125 C194.10544434 19.76888672 193.89838867 20.41277344 193.68505859 21.07617188 C189.78159375 31.89755022 181.31050681 37.57484198 171.5 42.6875 C169.28655547 43.88188425 167.07434942 45.07856605 164.86328125 46.27734375 C163.73486816 46.88433105 162.60645508 47.49131836 161.44384766 48.11669922 C155.78903442 51.20908752 150.24002676 54.47852277 144.6875 57.75 C142.71280781 58.91242416 140.73758999 60.07395609 138.76171875 61.234375 C137.5236145 61.96479004 137.5236145 61.96479004 136.26049805 62.70996094 C134.20414562 63.88349655 132.12906964 64.96554024 130 66 C134.49673957 64.61700995 138.54831136 62.83329694 142.734375 60.69140625 C143.36606094 60.36840546 143.99774689 60.04540466 144.64857483 59.71261597 C146.68518813 58.66792758 148.71779828 57.61574117 150.75 56.5625 C151.44064545 56.20672882 152.13129089 55.85095764 152.84286499 55.48440552 C162.13177638 50.69337084 171.23545277 45.72933938 179.99707031 40.01196289 C181.63221889 38.95587851 183.31166498 37.96878788 185 37 C185.66 37.33 186.32 37.66 187 38 C184.9547725 41.75966869 182.88589866 45.50580436 180.8125 49.25 C180.23435547 50.31347656 179.65621094 51.37695312 179.06054688 52.47265625 C178.20493164 54.00986328 178.20493164 54.00986328 177.33203125 55.578125 C176.81358643 56.52075195 176.2951416 57.46337891 175.76098633 58.43457031 C170.83095146 65.61671454 163.87657099 67.08738667 155.75683594 68.60693359 C152.30094536 69.17370754 148.8416386 69.69088566 145.375 70.1875 C144.18003906 70.36474609 142.98507812 70.54199219 141.75390625 70.72460938 C138.83683924 71.15633529 135.91896218 71.58131476 133 72 C142.00141806 71.51481718 150.84049443 70.71597018 159.7578125 69.40234375 C162.55458587 69.05527428 165.18786476 68.92041127 168 69 C153.66442038 83.81343227 153.66442038 83.81343227 147.4296875 84.25 C142.60142492 84.18891037 138.58379582 82.73658363 134.125 81 C129.18952323 78.87861744 129.18952323 78.87861744 124 78 C124.66386719 78.38671875 125.32773437 78.7734375 126.01171875 79.171875 C137.71692061 86.07538091 137.71692061 86.07538091 141 91 C141.81277868 95.55156062 141.7192682 97.75477782 139.38671875 101.79296875 C135.93709769 106.60684673 132.24824535 110.8707948 128 115 C128.03480469 113.97261719 128.06960938 112.94523437 128.10546875 111.88671875 C128.4326328 98.30365646 126.65373453 88.92978525 118 78 C119.02558784 81.07676352 120.24025253 84.0117618 121.5 87 C123.68091886 92.17334241 125.16552383 96.2291761 125.25 101.875 C125.27578125 102.90367187 125.3015625 103.93234375 125.328125 104.9921875 C125 108 125 108 123.421875 110.5703125 C121.75709718 112.90290672 121.75709718 112.90290672 122.140625 115.578125 C125.09053597 123.89151047 133.37562614 128.60291863 140.40234375 133.21484375 C141.25957031 133.80394531 142.11679687 134.39304687 143 135 C143 135.33 143 135.66 143 136 C131.37029269 136.75708764 131.37029269 136.75708764 126.56640625 133.5390625 C122.35149179 129.3977251 119.1550084 123.80190265 118 118 C117.34 118 116.68 118 116 118 C119.09209679 126.65192468 123.03458295 133.06009981 129 140 C129.66 140.99 130.32 141.98 131 143 C127.98716918 143.44090207 125.81839342 143.48171258 123.1484375 141.91015625 C117.68875084 137.53079057 115.52094131 132.98357296 114.3125 126.0625 C114.209375 125.051875 114.10625 124.04125 114 123 C113.34 123 112.68 123 112 123 C108.90966488 127.63550267 107.99735809 132.44615018 109 138 C113.24154638 147.27635907 121.6197957 153.62807417 130 159 C130 159.33 130 159.66 130 160 C119.39055794 160.77253219 119.39055794 160.77253219 114.625 158.125 C110.97191911 154.37406873 108.49726304 149.5606045 106 145 C108.22249961 153.44549851 113.33840107 160.50581299 119 167 C119 167.33 119 167.66 119 168 C114.7476422 167.74986131 112.52435219 167.43113402 109.1875 164.6875 C107.36922686 162.45362157 106.19673526 160.57758364 105 158 C104.34 157.67 103.68 157.34 103 157 C103.02320313 157.95261719 103.04640625 158.90523437 103.0703125 159.88671875 C103.08835937 161.14097656 103.10640625 162.39523437 103.125 163.6875 C103.14820313 164.92886719 103.17140625 166.17023438 103.1953125 167.44921875 C103.01032021 170.81237857 102.45767895 172.9985587 101 176 C100.34 176 99.68 176 99 176 C95.89640604 170.95665982 95.39985931 166.77058356 96 161 C96.33 160.34 96.66 159.68 97 159 C95.05000871 159.19471111 95.05000871 159.19471111 93 160 C92.71125 160.598125 92.4225 161.19625 92.125 161.8125 C90.44988312 165.06967172 88.16495665 166.26237674 85 168 C82.125 168.25 82.125 168.25 80 168 C80.58007812 167.38125 80.58007812 167.38125 81.171875 166.75 C85.05737783 162.4413236 87.59273608 158.2774632 90 153 C89.46890625 153.49371094 88.9378125 153.98742187 88.390625 154.49609375 C87.68421875 155.13675781 86.9778125 155.77742187 86.25 156.4375 C85.20585937 157.39462891 85.20585937 157.39462891 84.140625 158.37109375 C80.4747396 161.16064523 77.25417601 161.12176547 72.75 161.0625 C71.85796875 161.05347656 70.9659375 161.04445313 70.046875 161.03515625 C69.03367188 161.01775391 69.03367188 161.01775391 68 161 C70.60812824 158.15964116 73.6107079 156.09800126 76.75 153.875 C82.63025567 149.54283523 88.63963517 144.8831593 90.67578125 137.57421875 C91.19776189 133.73168655 91.00284729 130.73717311 90 127 C90 126.34 90 125.68 90 125 C89.34 124.34 88.68 123.68 88 123 C87.82984375 123.64066406 87.6596875 124.28132813 87.484375 124.94140625 C83.93645145 137.60447382 83.93645145 137.60447382 78.625 141.9375 C75.57822423 143.17071876 73.25772389 143.22728306 70 143 C70.825 142.13375 71.65 141.2675 72.5 140.375 C75.6123652 136.76495349 77.96662391 132.87759448 80.3125 128.75 C80.66183594 128.13560059 81.01117188 127.52120117 81.37109375 126.88818359 C82.82463884 124.28224621 84.05403782 121.83788654 85 119 C82.25082786 120.37458607 81.98588898 121.96513017 80.75 124.75 C78.15911956 130.1239627 75.41393146 133.29303427 70 136 C67.95944995 136.07065617 65.91665743 136.08421976 63.875 136.0625 C62.77929688 136.05347656 61.68359375 136.04445313 60.5546875 136.03515625 C59.71164063 136.02355469 58.86859375 136.01195312 58 136 C60.47708304 133.31649337 63.24817285 131.37940054 66.25 129.3125 C71.26655034 125.72163594 75.21672577 121.85498672 79 117 C77.87548273 114.0280615 76.77706209 111.66559313 75 109 C73.59541937 98.99051486 76.24508111 91.13491743 80 82 C80.495 80.515 80.495 80.515 81 79 C80.05174959 80.32570931 79.11703784 81.66110365 78.1875 83 C77.66542969 83.7425 77.14335937 84.485 76.60546875 85.25 C72.73898377 91.87288424 71.52949139 97.88670211 71.3125 105.5 C71.27833984 106.32242188 71.24417969 107.14484375 71.20898438 107.9921875 C71.1275012 109.9943455 71.06205425 111.99714568 71 114 C65.34024749 108.51589498 60.44533764 102.81043559 57.625 95.375 C58.20911899 90.11792907 61.06112354 87.35611934 65 84 C67.90294477 82.10139157 70.86414093 80.47904464 74 79 C70.90617655 79 68.69162743 79.73730414 65.80932617 80.78076172 C53.34833302 85.26909597 53.34833302 85.26909597 48 84 C45.26882659 81.94292194 42.85016185 79.72678172 40.41015625 77.33203125 C38.31649257 75.3062335 36.2711557 73.6410036 33.875 72 C32.451875 71.01 32.451875 71.01 31 70 C31 69.67 31 69.34 31 69 C40.46084538 69.71416664 49.84855125 70.79287979 59.25976562 71.98242188 C60.31744141 72.11326172 61.37511719 72.24410156 62.46484375 72.37890625 C63.409646 72.4982251 64.35444824 72.61754395 65.32788086 72.74047852 C67.90524362 72.99079707 70.41250232 73.04662951 73 73 C71.92105469 72.83918945 70.84210938 72.67837891 69.73046875 72.51269531 C65.69526882 71.90757448 61.66300243 71.28452061 57.63134766 70.65625 C55.89217854 70.38774217 54.1522688 70.12398374 52.41162109 69.86523438 C49.89727365 69.49060381 47.38616145 69.09848368 44.875 68.703125 C43.72294067 68.5372287 43.72294067 68.5372287 42.54760742 68.36798096 C35.73877836 67.2657244 29.54449449 65.21795922 25.0625 59.75 C22.16826275 55.52119779 19.6196632 51.0634025 17.0625 46.625 C16.64814697 45.91053711 16.23379395 45.19607422 15.80688477 44.45996094 C14.80632582 42.6748462 13.89490769 40.84035134 13 39 C13.33 38.34 13.66 37.68 14 37 C14.74213745 37.43530029 14.74213745 37.43530029 15.49926758 37.87939453 C26.64632516 44.39231062 37.91361365 50.62380527 49.375 56.5625 C51.09360229 57.45509521 51.09360229 57.45509521 52.84692383 58.36572266 C58.16356683 61.10444447 63.45530243 63.75495675 69 66 C68.35264893 65.63874023 67.70529785 65.27748047 67.03833008 64.90527344 C61.07298662 61.57465402 55.11125944 58.23767505 49.1541748 54.89230347 C46.4152815 53.35433226 43.6751314 51.81871887 40.93212891 50.28808594 C18.29007864 37.64905635 8.02091236 29.18885966 0.45556641 3.79663086 C0 2 0 2 0 0 Z " fill="#070707" transform="translate(150,134)"/>
<path d="M0 0 C0.66 0 1.32 0 2 0 C0.43524508 6.47863442 -1.49399079 12.83406905 -3.6875 19.125 C-3.89455566 19.76888672 -4.10161133 20.41277344 -4.31494141 21.07617188 C-8.21840625 31.89755022 -16.68949319 37.57484198 -26.5 42.6875 C-28.71344453 43.88188425 -30.92565058 45.07856605 -33.13671875 46.27734375 C-34.26513184 46.88433105 -35.39354492 47.49131836 -36.55615234 48.11669922 C-42.21096558 51.20908752 -47.75997324 54.47852277 -53.3125 57.75 C-55.28719219 58.91242416 -57.26241001 60.07395609 -59.23828125 61.234375 C-60.06368408 61.72131836 -60.88908691 62.20826172 -61.73950195 62.70996094 C-63.79585438 63.88349655 -65.87093036 64.96554024 -68 66 C-63.50326043 64.61700995 -59.45168864 62.83329694 -55.265625 60.69140625 C-54.63393906 60.36840546 -54.00225311 60.04540466 -53.35142517 59.71261597 C-51.31481187 58.66792758 -49.28220172 57.61574117 -47.25 56.5625 C-46.55935455 56.20672882 -45.86870911 55.85095764 -45.15713501 55.48440552 C-35.86822362 50.69337084 -26.76454723 45.72933938 -18.00292969 40.01196289 C-16.36778111 38.95587851 -14.68833502 37.96878788 -13 37 C-12.34 37.33 -11.68 37.66 -11 38 C-13.0452275 41.75966869 -15.11410134 45.50580436 -17.1875 49.25 C-17.76564453 50.31347656 -18.34378906 51.37695312 -18.93945312 52.47265625 C-19.50986328 53.49746094 -20.08027344 54.52226562 -20.66796875 55.578125 C-21.18641357 56.52075195 -21.7048584 57.46337891 -22.23901367 58.43457031 C-27.16904854 65.61671454 -34.12342901 67.08738667 -42.24316406 68.60693359 C-45.69905464 69.17370754 -49.1583614 69.69088566 -52.625 70.1875 C-54.41744141 70.45336914 -54.41744141 70.45336914 -56.24609375 70.72460938 C-59.16316076 71.15633529 -62.08103782 71.58131476 -65 72 C-55.99858194 71.51481718 -47.15950557 70.71597018 -38.2421875 69.40234375 C-35.44541413 69.05527428 -32.81213524 68.92041127 -30 69 C-44.33557962 83.81343227 -44.33557962 83.81343227 -50.5703125 84.25 C-55.39857508 84.18891037 -59.41620418 82.73658363 -63.875 81 C-68.81047677 78.87861744 -68.81047677 78.87861744 -74 78 C-73.33613281 78.38671875 -72.67226563 78.7734375 -71.98828125 79.171875 C-60.28307939 86.07538091 -60.28307939 86.07538091 -57 91 C-56.18722132 95.55156062 -56.2807318 97.75477782 -58.61328125 101.79296875 C-62.06290231 106.60684673 -65.75175465 110.8707948 -70 115 C-69.94779297 113.45892578 -69.94779297 113.45892578 -69.89453125 111.88671875 C-69.5673672 98.30365646 -71.34626547 88.92978525 -80 78 C-78.97441216 81.07676352 -77.75974747 84.0117618 -76.5 87 C-74.31908114 92.17334241 -72.83447617 96.2291761 -72.75 101.875 C-72.72421875 102.90367187 -72.6984375 103.93234375 -72.671875 104.9921875 C-73 108 -73 108 -74.578125 110.5703125 C-76.24290282 112.90290672 -76.24290282 112.90290672 -75.859375 115.578125 C-72.90946403 123.89151047 -64.62437386 128.60291863 -57.59765625 133.21484375 C-56.74042969 133.80394531 -55.88320313 134.39304687 -55 135 C-55 135.33 -55 135.66 -55 136 C-66.62970731 136.75708764 -66.62970731 136.75708764 -71.43359375 133.5390625 C-75.64850821 129.3977251 -78.8449916 123.80190265 -80 118 C-80.66 118 -81.32 118 -82 118 C-78.90790321 126.65192468 -74.96541705 133.06009981 -69 140 C-68.34 140.99 -67.68 141.98 -67 143 C-70.01283082 143.44090207 -72.18160658 143.48171258 -74.8515625 141.91015625 C-80.31124916 137.53079057 -82.47905869 132.98357296 -83.6875 126.0625 C-83.790625 125.051875 -83.89375 124.04125 -84 123 C-87.10910487 123 -88.379834 124.9472768 -90.625 127 C-91.85089844 128.11375 -91.85089844 128.11375 -93.1015625 129.25 C-93.72804687 129.8275 -94.35453125 130.405 -95 131 C-95 127.22998411 -93.63032902 124.40743316 -92.1875 121 C-86.61115407 107.38360676 -83.7557762 93.76614692 -84 79 C-88.50091637 93.62095181 -92.85150288 108.27511461 -97 123 C-97.66 123 -98.32 123 -99 123 C-100.35432892 118.57598785 -101.70503982 114.15089123 -103.05273438 109.72485352 C-103.50947888 108.22652045 -103.9671275 106.72846262 -104.42578125 105.23071289 C-107.49543186 95.20386075 -110.37289935 85.15261068 -113 75 C-112.05125 74.2575 -111.1025 73.515 -110.125 72.75 C-107.66701285 70.67462406 -105.93043384 69.16347504 -105 66 C-104.66645597 62.41624258 -104.66645597 62.41624258 -105 59 C-107.5654594 56.4345406 -109.47686668 56.45953913 -113 56 C-112.9375 54.1875 -112.9375 54.1875 -112 52 C-108.5 50.3125 -108.5 50.3125 -105 49 C-104.505 48.505 -104.505 48.505 -104 48 C-98.97215269 47.86743905 -94.41236526 48.15096507 -90.4375 51.4375 C-86.51546616 55.56066378 -86.73172396 58.67332636 -86.37890625 64.17578125 C-85.99093281 67.06758326 -85.19278286 69.34883485 -84 72 C-82.06040233 69.22497446 -82.06040233 69.22497446 -80.9921875 66.984375 C-80.62351562 66.24703125 -80.25484375 65.5096875 -79.875 64.75 C-79.52179688 64.02296875 -79.16859375 63.2959375 -78.8046875 62.546875 C-73.85392026 55.56007795 -66.70211949 51.39059672 -59.3125 47.375 C-57.45159322 46.33346128 -55.59226303 45.28910156 -53.734375 44.2421875 C-52.78755859 43.70948242 -51.84074219 43.17677734 -50.86523438 42.62792969 C-33.0039324 32.47973937 -12.07795505 20.54680663 -1.35546875 2.18359375 C-0.90816406 1.46300781 -0.46085937 0.74242187 0 0 Z " fill="#050505" transform="translate(348,134)"/>
<path d="M0 0 C1.72011355 2.58017032 2.46454522 4.12058885 3.296875 7 C3.53067871 7.79599609 3.76448242 8.59199219 4.00537109 9.41210938 C4.25109863 10.26611328 4.49682617 11.12011719 4.75 12 C6.35489905 17.48700616 7.97060183 22.96535714 9.7265625 28.40625 C10.00274414 29.2621875 10.27892578 30.118125 10.56347656 31 C11.09482063 32.6368722 11.63046667 34.27235568 12.17089844 35.90625 C13.32295275 39.46911328 14 42.21946958 14 46 C14.66 46 15.32 46 16 46 C16.061875 44.989375 16.12375 43.97875 16.1875 42.9375 C16.77994214 38.21441959 18.27801691 33.91508331 19.84375 29.43457031 C22.18187172 22.66929483 24.08071506 15.79142568 25.9440918 8.88208008 C26.18297119 8.01736084 26.42185059 7.1526416 26.66796875 6.26171875 C26.98157349 5.10095825 26.98157349 5.10095825 27.30151367 3.91674805 C28 2 28 2 30 0 C31.1045361 18.20439126 25.99780803 34.42964833 19 51 C20.96822886 51 22.50528545 49.15719836 24 48 C24.33 48.99 24.66 49.98 25 51 C24.505 51.99 24.505 51.99 24 53 C23.22707053 59.29385422 24.36190939 62.65894335 28.08984375 67.76171875 C32.97353285 73.48432376 38.69704916 77.9596469 45 82 C45 82.33 45 82.66 45 83 C34.39055794 83.77253219 34.39055794 83.77253219 29.625 81.125 C25.97191911 77.37406873 23.49726304 72.5606045 21 68 C23.22249961 76.44549851 28.33840107 83.50581299 34 90 C34 90.33 34 90.66 34 91 C29.7476422 90.74986131 27.52435219 90.43113402 24.1875 87.6875 C22.36922686 85.45362157 21.19673526 83.57758364 20 81 C19.01 80.505 19.01 80.505 18 80 C18.02320313 80.95261719 18.04640625 81.90523438 18.0703125 82.88671875 C18.08835938 84.14097656 18.10640625 85.39523437 18.125 86.6875 C18.14820313 87.92886719 18.17140625 89.17023438 18.1953125 90.44921875 C18.01032021 93.81237857 17.45767895 95.9985587 16 99 C15.34 99 14.68 99 14 99 C10.89640604 93.95665982 10.39985931 89.77058356 11 84 C11.33 83.34 11.66 82.68 12 82 C10.05000871 82.19471111 10.05000871 82.19471111 8 83 C7.71125 83.598125 7.4225 84.19625 7.125 84.8125 C5.44988312 88.06967172 3.16495665 89.26237674 0 91 C-2.875 91.25 -2.875 91.25 -5 91 C-4.61328125 90.5875 -4.2265625 90.175 -3.828125 89.75 C0.05737783 85.4413236 2.59273608 81.2774632 5 76 C4.20335937 76.74056641 4.20335937 76.74056641 3.390625 77.49609375 C2.68421875 78.13675781 1.9778125 78.77742188 1.25 79.4375 C0.55390625 80.07558594 -0.1421875 80.71367187 -0.859375 81.37109375 C-4.5252604 84.16064523 -7.74582399 84.12176547 -12.25 84.0625 C-13.58804688 84.04896484 -13.58804688 84.04896484 -14.953125 84.03515625 C-15.62859375 84.02355469 -16.3040625 84.01195312 -17 84 C-14.39187176 81.15964116 -11.3892921 79.09800126 -8.25 76.875 C-2.36974433 72.54283523 3.63963517 67.8831593 5.67578125 60.57421875 C6.19407349 56.75883854 6.06667533 53.70836346 5 50 C6.65 50.33 8.3 50.66 10 51 C9.33187864 47.77346272 8.15908909 44.82273349 6.93017578 41.77319336 C1.43843898 27.97391414 -0.57491464 14.82002183 0 0 Z " fill="#EFEFEF" transform="translate(235,211)"/>
<path d="M0 0 C3 1 3 1 4.31640625 3.29296875 C5.56278185 6.18815472 6.79818622 9.08601318 8 12 C8.433125 12.969375 8.86625 13.93875 9.3125 14.9375 C10.58449377 20.60365405 11.56320626 27.4718516 8.41796875 32.55859375 C6.75824644 34.90226251 6.75824644 34.90226251 7.140625 37.578125 C10.09053597 45.89151047 18.37562614 50.60291863 25.40234375 55.21484375 C26.25957031 55.80394531 27.11679687 56.39304687 28 57 C28 57.33 28 57.66 28 58 C16.37029269 58.75708764 16.37029269 58.75708764 11.56640625 55.5390625 C7.35149179 51.3977251 4.1550084 45.80190265 3 40 C2.34 40 1.68 40 1 40 C4.09209679 48.65192468 8.03458295 55.06009981 14 62 C14.66 62.99 15.32 63.98 16 65 C12.98716918 65.44090207 10.81839342 65.48171258 8.1484375 63.91015625 C2.68875084 59.53079057 0.52094131 54.98357296 -0.6875 48.0625 C-0.790625 47.051875 -0.89375 46.04125 -1 45 C-4.10910487 45 -5.379834 46.9472768 -7.625 49 C-8.85089844 50.11375 -8.85089844 50.11375 -10.1015625 51.25 C-10.72804687 51.8275 -11.35453125 52.405 -12 53 C-12 48.65378993 -10.0818643 45.08905835 -8.39648438 41.15234375 C-4.36548345 31.45803536 -2.47809533 21.7136867 -1.3125 11.3125 C-1.18294922 10.21744141 -1.05339844 9.12238281 -0.91992188 7.99414062 C-0.60583295 5.33020119 -0.2993182 2.66563228 0 0 Z " fill="#0A0A0A" transform="translate(265,212)"/>
<path d="M0 0 C0.66 0.33 1.32 0.66 2 1 C1.01 1.66 0.02 2.32 -1 3 C12.048592 3.47868476 24.58836058 2.13819437 37.49902344 0.27539062 C40.0209243 -0.00230404 42.46507085 -0.04772166 45 0 C30.66036317 14.81762472 30.66036317 14.81762472 24.41015625 15.24609375 C19.67936791 15.1852373 15.79733797 13.78670741 11.4375 12.0625 C6.24787127 10.04924169 1.55343088 8.57650596 -4 8 C-4 6 -4 4 -4 2 C-2.125 0.9375 -2.125 0.9375 0 0 Z " fill="#101010" transform="translate(273,203)"/>
<path d="M0 0 C0.66 0 1.32 0 2 0 C4.79028673 4.35284729 5.47605873 7.44368513 4.70703125 12.4296875 C2.4141035 20.76530331 -1.64385735 28.78631441 -9.1875 33.3125 C-13.44289626 34.35270798 -17.64203761 34.15231713 -22 34 C-19.39187176 31.15964116 -16.3892921 29.09800126 -13.25 26.875 C-7.36974433 22.54283523 -1.36036483 17.8831593 0.67578125 10.57421875 C1.19407349 6.75883854 1.06667533 3.70836346 0 0 Z " fill="#111111" transform="translate(240,261)"/>
<path d="M0 0 C1 2 1 2 0.6875 5.5625 C0.64666135 11.20844339 3.43718984 14.82517337 7 19 C11.59946238 23.63225712 16.51801133 27.4859047 22 31 C22 31.33 22 31.66 22 32 C11.47765278 32.76619033 11.47765278 32.76619033 6.625 30.25 C0.67366756 24.1397299 -3.29640091 14.36142317 -3.234375 5.94140625 C-2.91637069 3.30727051 -1.85261851 1.85261851 0 0 Z " fill="#0C0C0C" transform="translate(258,262)"/>
<path d="M0 0 C0.66 0.33 1.32 0.66 2 1 C0.84596828 4.46209516 0.36657476 4.6663296 -2.671875 6.390625 C-3.46803223 6.84606689 -4.26418945 7.30150879 -5.08447266 7.77075195 C-5.96409668 8.25890381 -6.8437207 8.74705566 -7.75 9.25 C-8.65927246 9.76071045 -9.56854492 10.2714209 -10.50537109 10.79760742 C-18.1701903 15.06284189 -25.90217785 19.20724212 -33.6685791 23.28430176 C-34.97247211 23.96956356 -36.27480728 24.65779781 -37.57556152 25.34899902 C-39.41231217 26.32255544 -41.25563372 27.28226677 -43.1015625 28.23828125 C-44.69991943 29.074198 -44.69991943 29.074198 -46.33056641 29.92700195 C-49 31 -49 31 -52 30 C-41.07319832 23.47698496 -30.03554726 17.17501346 -18.90844727 10.99951172 C-17.89838623 10.4376416 -16.8883252 9.87577148 -15.84765625 9.296875 C-14.87070801 8.75353516 -13.89375977 8.21019531 -12.88720703 7.65039062 C-9.17819567 5.53023869 -5.56076346 3.27414328 -1.95874023 0.97753906 C-1.31235596 0.65495117 -0.66597168 0.33236328 0 0 Z " fill="#E6E6E6" transform="translate(331,170)"/>
<path d="M0 0 C1.423125 -0.061875 2.84625 -0.12375 4.3125 -0.1875 C5.51326172 -0.23970703 5.51326172 -0.23970703 6.73828125 -0.29296875 C9 0 9 0 10.7734375 1.35546875 C12.49988769 3.67023158 12.35263504 5.1789197 12 8 C11.01 9.485 11.01 9.485 10 11 C10.66 12.32 11.32 13.64 12 15 C10.0625 14.625 10.0625 14.625 8 14 C7.67 13.34 7.34 12.68 7 12 C4.97536745 11.34786708 4.97536745 11.34786708 3 11 C3 12.32 3 13.64 3 15 C2.01 15 1.02 15 0 15 C0 10.05 0 5.1 0 0 Z " fill="#605E5E" transform="translate(361,345)"/>
<path d="M0 0 C8.625 -0.25 8.625 -0.25 12 2 C12.4375 4.9375 12.4375 4.9375 12 8 C9.7793949 10.467339 8.56430797 10.96152446 5.25 11.1875 C4.5075 11.125625 3.765 11.06375 3 11 C3 12.32 3 13.64 3 15 C2.01 15 1.02 15 0 15 C0 10.05 0 5.1 0 0 Z " fill="#575554" transform="translate(220,345)"/>
<path d="M0 0 C0.66 0.33 1.32 0.66 2 1 C4.57975003 9.59916676 5.89216635 19.65964354 2 28 C1.34 28 0.68 28 0 28 C-4.60521619 20.5165237 -3.38021808 14.17464589 -1.5 5.9375 C-1.00970868 3.95590592 -0.51304287 1.97582583 0 0 Z " fill="#0C0C0C" transform="translate(249,282)"/>
<path d="M0 0 C0.33 0 0.66 0 1 0 C1.63263937 8.10129863 0.73847365 16.11951422 -4.35546875 22.76953125 C-7.86833107 26.03752917 -11.32761352 26.71965681 -16 27 C-15.113125 26.030625 -14.22625 25.06125 -13.3125 24.0625 C-7.26018685 16.97305338 -3.72004367 8.4690356 0 0 Z " fill="#111111" transform="translate(246,275)"/>
<path d="M0 0 C4.22999675 1.05749919 4.54930356 1.20032488 6.75 4.5625 C7.17796875 5.20316406 7.6059375 5.84382813 8.046875 6.50390625 C8.36140625 6.99761719 8.6759375 7.49132812 9 8 C9.33 5.36 9.66 2.72 10 0 C10.99 0 11.98 0 13 0 C13 4.95 13 9.9 13 15 C8.77000325 13.94250081 8.45069644 13.79967512 6.25 10.4375 C5.82203125 9.79683594 5.3940625 9.15617187 4.953125 8.49609375 C4.63859375 8.00238281 4.3240625 7.50867188 4 7 C3.67 9.64 3.34 12.28 3 15 C2.01 15 1.02 15 0 15 C0 10.05 0 5.1 0 0 Z " fill="#555453" transform="translate(313,345)"/>
<path d="M0 0 C2.60033291 3.22881217 4.4283295 6.6264561 6.3125 10.3125 C9.07659948 15.54076477 11.98277387 19.68883049 16 24 C16 24.33 16 24.66 16 25 C11.89128321 24.75831078 9.54614758 24.42202313 6.25 21.875 C0.82512673 14.94321749 -0.14062136 8.4372815 0 0 Z " fill="#111111" transform="translate(253,277)"/>
<path d="M0 0 C-0.16925505 7.37028815 -1.52941727 13.03082757 -6 19 C-9.6286003 22.0703541 -12.31689362 22.32672835 -17 22 C-16.175 21.13375 -15.35 20.2675 -14.5 19.375 C-10.88223043 15.20595126 -8.32806988 10.54621915 -5.71679688 5.71240234 C-2.59614699 0 -2.59614699 0 0 0 Z " fill="#151515" transform="translate(237,255)"/>
<path d="M0 0 C3 1 3 1 4.32421875 3.1875 C4.77410156 4.115625 5.22398437 5.04375 5.6875 6 C8.35307128 11.14314256 11.4824328 15.13319706 15.4609375 19.3203125 C17 21 17 21 17 22 C13.98716918 22.44090207 11.81839342 22.48171258 9.1484375 20.91015625 C3.41610674 16.31209519 1.16699781 11.33142805 0.3125 4.0625 C0.19727993 2.709229 0.0891201 1.35524008 0 0 Z " fill="#101010" transform="translate(264,255)"/>
<path d="M0 0 C0.99 0 1.98 0 3 0 C4.98 4.62 6.96 9.24 9 14 C8.01 14.33 7.02 14.66 6 15 C5.67 14.34 5.34 13.68 5 13 C2.36 13 -0.28 13 -3 13 C-3.33 13.66 -3.66 14.32 -4 15 C-4.99 14.67 -5.98 14.34 -7 14 C-4.69 9.38 -2.38 4.76 0 0 Z " fill="#888686" transform="translate(268,345)"/>
<path d="M0 0 C4.39718646 1.09929662 4.79997334 1.55450729 7.25 5.0625 C8.03117188 6.16271484 8.03117188 6.16271484 8.828125 7.28515625 C9.21484375 7.85105469 9.6015625 8.41695313 10 9 C10.33 6.03 10.66 3.06 11 0 C11.66 0 12.32 0 13 0 C13 4.95 13 9.9 13 15 C12.01 15 11.02 15 10 15 C8.39453125 13.25 8.39453125 13.25 6.8125 11 C6.28269531 10.2575 5.75289062 9.515 5.20703125 8.75 C4.60955078 7.88375 4.60955078 7.88375 4 7 C3.67 9.64 3.34 12.28 3 15 C2.01 15 1.02 15 0 15 C0 10.05 0 5.1 0 0 Z " fill="#514F4E" transform="translate(174,345)"/>
<path d="M0 0 C4.39718646 1.09929662 4.79997334 1.55450729 7.25 5.0625 C8.03117187 6.16271484 8.03117187 6.16271484 8.828125 7.28515625 C9.21484375 7.85105469 9.6015625 8.41695313 10 9 C10.33 6.03 10.66 3.06 11 0 C11.66 0 12.32 0 13 0 C13 4.95 13 9.9 13 15 C8.11261969 12.55630984 6.97285462 10.45928193 4 6 C3.67 8.97 3.34 11.94 3 15 C2.01 15 1.02 15 0 15 C0 10.05 0 5.1 0 0 Z " fill="#585655" transform="translate(287,345)"/>
<path d="M0 0 C3.63 0 7.26 0 11 0 C11 0.66 11 1.32 11 2 C8.36 2 5.72 2 3 2 C3 3.32 3 4.64 3 6 C5.31 6 7.62 6 10 6 C10 6.99 10 7.98 10 9 C7.69 9 5.38 9 3 9 C3 10.32 3 11.64 3 13 C5.64 13 8.28 13 11 13 C11 13.66 11 14.32 11 15 C7.37 15 3.74 15 0 15 C0 10.05 0 5.1 0 0 Z " fill="#565453" transform="translate(338,345)"/>
<path d="M0 0 C3 0.1875 3 0.1875 5 1.1875 C5 1.8475 5 2.5075 5 3.1875 C2.36 3.1875 -0.28 3.1875 -3 3.1875 C-1.37633534 6.43482932 1.75387839 6.88905136 5 8.1875 C5.125 10.5625 5.125 10.5625 5 13.1875 C3 15.1875 3 15.1875 -0.625 15.3125 C-1.73875 15.27125 -2.8525 15.23 -4 15.1875 C-4.66 13.8675 -5.32 12.5475 -6 11.1875 C-3.36 11.5175 -0.72 11.8475 2 12.1875 C2 11.1975 2 10.2075 2 9.1875 C1.030625 9.043125 0.06125 8.89875 -0.9375 8.75 C-4 8.1875 -4 8.1875 -5 7.1875 C-5.1875 4.75 -5.1875 4.75 -5 2.1875 C-3 0.1875 -3 0.1875 0 0 Z " fill="#525150" transform="translate(390,344.8125)"/>
<path d="M0 0 C0.99 0 1.98 0 3 0 C4.32 3.3 5.64 6.6 7 10 C8.32 6.7 9.64 3.4 11 0 C11.99 0 12.98 0 14 0 C12.36041242 5.23272633 10.61047965 10.15196636 8 15 C7.01 15 6.02 15 5 15 C4.16260219 12.8765984 3.33019717 10.7512272 2.5 8.625 C1.80390625 6.84996094 1.80390625 6.84996094 1.09375 5.0390625 C0 2 0 2 0 0 Z " fill="#535150" transform="translate(127,345)"/>
<path d="M0 0 C0.66 0.33 1.32 0.66 2 1 C0.73472831 4.79581506 -0.30707268 4.9745767 -3.8046875 6.734375 C-5.26841797 7.47107422 -5.26841797 7.47107422 -6.76171875 8.22265625 C-7.78910156 8.72667969 -8.81648438 9.23070312 -9.875 9.75 C-10.89464844 10.26949219 -11.91429687 10.78898438 -12.96484375 11.32421875 C-14.43244141 12.05318359 -14.43244141 12.05318359 -15.9296875 12.796875 C-16.82929199 13.24385742 -17.72889648 13.69083984 -18.65576172 14.15136719 C-21 15 -21 15 -24 14 C-21.31294159 12.41591638 -18.62527171 10.832873 -15.9375 9.25 C-15.18533203 8.8065625 -14.43316406 8.363125 -13.65820312 7.90625 C-12.16165551 7.02516569 -10.66345687 6.14687935 -9.16357422 5.27148438 C-7.75147711 4.44162636 -6.34640801 3.59965739 -4.94970703 2.74414062 C-3.33386156 1.77052775 -1.67041175 0.87670018 0 0 Z " fill="#E1E1E1" transform="translate(303,186)"/>
<path d="M0 0 C3.3 0 6.6 0 10 0 C10 0.66 10 1.32 10 2 C7.36 2 4.72 2 2 2 C2 3.65 2 5.3 2 7 C4.31 7 6.62 7 9 7 C9 7.33 9 7.66 9 8 C6.69 8 4.38 8 2 8 C2 9.65 2 11.3 2 13 C4.64 13 7.28 13 10 13 C10 13.66 10 14.32 10 15 C6.7 15 3.4 15 0 15 C0 10.05 0 5.1 0 0 Z " fill="#3E3C3B" transform="translate(152,345)"/>
<path d="M0 0 C3.3 0 6.6 0 10 0 C10 0.66 10 1.32 10 2 C7.36 2 4.72 2 2 2 C2 3.65 2 5.3 2 7 C4.31 7 6.62 7 9 7 C9 7.33 9 7.66 9 8 C6.69 8 4.38 8 2 8 C2 9.65 2 11.3 2 13 C4.64 13 7.28 13 10 13 C10 13.66 10 14.32 10 15 C6.7 15 3.4 15 0 15 C0 10.05 0 5.1 0 0 Z " fill="#3E3C3B" transform="translate(106,345)"/>
<path d="M0 0 C3.96 0 7.92 0 12 0 C12 0.66 12 1.32 12 2 C10.35 2 8.7 2 7 2 C7 6.29 7 10.58 7 15 C6.01 15 5.02 15 4 15 C4 11.04 4 7.08 4 3 C2.68 3 1.36 3 0 3 C0 2.01 0 1.02 0 0 Z " fill="#5A5857" transform="translate(198,345)"/>
<path d="M0 0 C0.99 0 1.98 0 3 0 C3 4.29 3 8.58 3 13 C4.98 13 6.96 13 9 13 C9 13.66 9 14.32 9 15 C6.03 15 3.06 15 0 15 C0 10.05 0 5.1 0 0 Z " fill="#535251" transform="translate(243,345)"/>
<path d="M0 0 C0.99 0 1.98 0 3 0 C3.66 1.98 4.32 3.96 5 6 C4.01 6 3.02 6 2 6 C2 5.34 2 4.68 2 4 C1.34 4 0.68 4 0 4 C-0.66 5.98 -1.32 7.96 -2 10 C-0.68 10.33 0.64 10.66 2 11 C0.35 11 -1.3 11 -3 11 C-3.33 12.32 -3.66 13.64 -4 15 C-4.99 14.67 -5.98 14.34 -7 14 C-4.69 9.38 -2.38 4.76 0 0 Z " fill="#4A4847" transform="translate(268,345)"/>
<path d="M0 0 C2.97 0 5.94 0 9 0 C9 0.66 9 1.32 9 2 C6.69 2 4.38 2 2 2 C2 4.31 2 6.62 2 9 C3.65 9 5.3 9 7 9 C7 9.33 7 9.66 7 10 C5.35 10 3.7 10 2 10 C2 11.65 2 13.3 2 15 C1.34 15 0.68 15 0 15 C0 10.05 0 5.1 0 0 Z " fill="#413F3E" transform="translate(361,345)"/>
<path d="M0 0 C0 0.33 0 0.66 0 1 C-6.44283279 1.10402152 -12.66459122 0.73459309 -19.0625 0 C-19.92810547 -0.09539062 -20.79371094 -0.19078125 -21.68554688 -0.2890625 C-23.79084969 -0.52169264 -25.89549956 -0.76021969 -28 -1 C-20.00428268 -5.41396452 -8.53361965 -2.02525996 0 0 Z " fill="#CFCFCF" transform="translate(227,207)"/>
<path d="M0 0 C0.66 0 1.32 0 2 0 C2 4.95 2 9.9 2 15 C1.01 15 0.02 15 -1 15 C-4 11.66666667 -4 11.66666667 -4 9 C-3.01 9 -2.02 9 -1 9 C-0.67 6.03 -0.34 3.06 0 0 Z " fill="#434140" transform="translate(185,345)"/>
<path d="M0 0 C0.66 0 1.32 0 2 0 C2 4.95 2 9.9 2 15 C-2 13 -2 13 -3 10 C-2.01 10 -1.02 10 0 10 C0 6.7 0 3.4 0 0 Z " fill="#413F3E" transform="translate(298,345)"/>
<path d="M0 0 C2.375 -0.125 2.375 -0.125 5 0 C5.66 0.66 6.32 1.32 7 2 C6.625 4.125 6.625 4.125 6 6 C4.02 6 2.04 6 0 6 C0 4.02 0 2.04 0 0 Z " fill="#F0F0F0" transform="translate(223,347)"/>
<path d="M0 0 C-3.82176372 3.82176372 -9.80697511 3.0558885 -14.9375 3.0625 C-16.6250537 3.04660111 -18.31259486 3.02746229 -20 3 C-20 2.67 -20 2.34 -20 2 C-17.41842632 1.46867611 -14.83538244 0.94965621 -12.25 0.4375 C-11.52039063 0.28603516 -10.79078125 0.13457031 -10.0390625 -0.02148438 C-6.33442927 -0.74557178 -3.60677678 -1.09817231 0 0 Z " fill="#E0E0E0" transform="translate(298,204)"/>
<path d="M0 0 C4.39383706 1.59623144 8.28995807 3.78024333 12.3125 6.125 C12.95767578 6.49753906 13.60285156 6.87007812 14.26757812 7.25390625 C15.84675945 8.16632213 17.42361864 9.08275509 19 10 C18.01 10.495 18.01 10.495 17 11 C15.12060547 10.28735352 15.12060547 10.28735352 12.8671875 9.12890625 C12.06152344 8.71962891 11.25585938 8.31035156 10.42578125 7.88867188 C9.58402344 7.45103516 8.74226562 7.01339844 7.875 6.5625 C7.02550781 6.12873047 6.17601562 5.69496094 5.30078125 5.24804688 C3.19677908 4.17240532 1.0968542 3.08949234 -1 2 C-0.67 1.34 -0.34 0.68 0 0 Z " fill="#D9D9D9" transform="translate(205,192)"/>
<path d="M0 0 C0.66 0.33 1.32 0.66 2 1 C1 4 1 4 -0.7421875 5.203125 C-1.44601562 5.54859375 -2.14984375 5.8940625 -2.875 6.25 C-3.57367188 6.60578125 -4.27234375 6.9615625 -4.9921875 7.328125 C-7 8 -7 8 -10 7 C-7.01767477 3.67356033 -4.13629913 1.70847138 0 0 Z " fill="#EEEEEE" transform="translate(314,180)"/>
<path d="M0 0 C1.98 0 3.96 0 6 0 C6 1.65 6 3.3 6 5 C4.02 5 2.04 5 0 5 C0 3.35 0 1.7 0 0 Z " fill="#FBFBFB" transform="translate(364,348)"/>
<path d="M0 0 C0.66 0 1.32 0 2 0 C1.39301257 4.12751449 -0.03810791 7.3321148 -2 11 C-2.99 11 -3.98 11 -5 11 C-3.55049545 7.2089881 -1.84827434 3.6125362 0 0 Z " fill="#E4E4E4" transform="translate(233,253)"/>
<path d="M0 0 C0.66 0 1.32 0 2 0 C3.65 3.63 5.3 7.26 7 11 C6.01 11.33 5.02 11.66 4 12 C3.32645501 10.56570999 2.66140299 9.12742943 2 7.6875 C1.62875 6.88699219 1.2575 6.08648437 0.875 5.26171875 C0 3 0 3 0 0 Z " fill="#E1E1E1" transform="translate(266,252)"/>
<path d="M0 0 C-3.12781414 2.52631142 -6.29577411 4.42373366 -10 6 C-10.99 5.67 -11.98 5.34 -13 5 C-11.40377344 3.96679519 -9.79770894 2.94877571 -8.1875 1.9375 C-7.29417969 1.36902344 -6.40085937 0.80054688 -5.48046875 0.21484375 C-3 -1 -3 -1 0 0 Z " fill="#D3D3D3" transform="translate(292,195)"/>
<path d="M0 0 C0.33 2.31 0.66 4.62 1 7 C0.01 6.67 -0.98 6.34 -2 6 C-2 4.68 -2 3.36 -2 2 C-3.98 2 -5.96 2 -8 2 C-8 3.65 -8 5.3 -8 7 C-8.33 7 -8.66 7 -9 7 C-9 5.02 -9 3.04 -9 1 C-2.25 0 -2.25 0 0 0 Z " fill="#807E7D" transform="translate(372,346)"/>
<path d="M0 0 C1.65 0 3.3 0 5 0 C5.66 1.32 6.32 2.64 7 4 C3.125 3.125 3.125 3.125 2 2 C1.67 4.64 1.34 7.28 1 10 C0.67 10 0.34 10 0 10 C0 6.7 0 3.4 0 0 Z " fill="#626160" transform="translate(176,350)"/>
<path d="M0 0 C0.99 0 1.98 0 3 0 C3.66 1.98 4.32 3.96 5 6 C4.01 6 3.02 6 2 6 C2 5.34 2 4.68 2 4 C0.68 4.33 -0.64 4.66 -2 5 C-1.34 3.35 -0.68 1.7 0 0 Z " fill="#535150" transform="translate(268,345)"/>
<path d="M0 0 C2.12508244 3.18762365 2.5020163 5.26512223 3 9 C2.34 9 1.68 9 1 9 C1 10.98 1 12.96 1 15 C0.67 15 0.34 15 0 15 C0 10.05 0 5.1 0 0 Z " fill="#C9C9C9" transform="translate(235,211)"/>
<path d="M0 0 C5.75 -0.125 5.75 -0.125 8 1 C8 1.66 8 2.32 8 3 C5.36 3 2.72 3 0 3 C0 2.01 0 1.02 0 0 Z " fill="#5D5C5B" transform="translate(387,345)"/>
<path d="M0 0 C0.99 0.33 1.98 0.66 3 1 C1.02 5.455 1.02 5.455 -1 10 C-1.66 8.68 -2.32 7.36 -3 6 C-1.625 2.75 -1.625 2.75 0 0 Z " fill="#DCDCDC" transform="translate(242,279)"/>
<path d="M0 0 C-5.445 2.475 -5.445 2.475 -11 5 C-10.67 3.68 -10.34 2.36 -10 1 C-3.375 -1.125 -3.375 -1.125 0 0 Z " fill="#C8C8C8" transform="translate(228,212)"/>
<path d="M0 0 C0 3.86695678 -1.41909971 6.5088452 -3 10 C-3.99 9.67 -4.98 9.34 -6 9 C-4.47291037 5.56404834 -2.40072955 2.88087546 0 0 Z " fill="#D3D3D3" transform="translate(232,211)"/>
<path d="M0 0 C0.33 0.66 0.66 1.32 1 2 C1.99 1.67 2.98 1.34 4 1 C4.33 2.65 4.66 4.3 5 6 C3.35 6.33 1.7 6.66 0 7 C0 4.69 0 2.38 0 0 Z " fill="#B1B1B1" transform="translate(252,273)"/>
<path d="M0 0 C0.33 0 0.66 0 1 0 C1 3.63 1 7.26 1 11 C0.01 10.01 -0.98 9.02 -2 8 C-1.75528519 5.00224356 -1.34661086 2.69322172 0 0 Z " fill="#ADADAD" transform="translate(264,211)"/>
</svg>
